<svg xmlns="http://www.w3.org/2000/svg" viewBox="0 0 96 96" role="img" aria-labelledby="title desc">
  <title id="title">emBEADings mark</title>
  <desc id="desc">Two separate epic molecules extend toward an amber near-touch collision point.</desc>
  <rect x="1" y="1" width="94" height="94" rx="21" fill="#ffffff" stroke="#cbd5e1" stroke-width="2"/>
  <circle cx="48" cy="48" r="13" fill="#f59e0b" opacity=".08"/>
  <circle cx="48" cy="48" r="10" fill="none" stroke="#f59e0b" stroke-width="1.5" opacity=".28"/>
  <g fill="none" stroke="#1d4ed8" stroke-linecap="round" stroke-linejoin="round" stroke-width="3">
    <path d="M21 39 10 27M21 39 9 51M21 39 26 22"/>
    <path d="M25 41C31 42 37 44 44 46"/>
  </g>
  <g fill="#2563eb">
    <circle cx="21" cy="39" r="6.5"/>
    <circle cx="10" cy="27" r="4"/>
    <circle cx="9" cy="51" r="4"/>
    <circle cx="26" cy="22" r="3.5"/>
    <circle cx="44" cy="46" r="4"/>
  </g>
  <g fill="none" stroke="#047857" stroke-linecap="round" stroke-linejoin="round" stroke-width="3">
    <path d="M75 57 86 69M75 57 87 45M75 57 70 74"/>
    <path d="M71 55C65 54 59 52 52 50"/>
  </g>
  <g fill="#059669">
    <circle cx="75" cy="57" r="6.5"/>
    <circle cx="86" cy="69" r="4"/>
    <circle cx="87" cy="45" r="4"/>
    <circle cx="70" cy="74" r="3.5"/>
    <circle cx="52" cy="50" r="4"/>
  </g>
  <circle cx="48" cy="48" r="2.2" fill="#f59e0b"/>
</svg>
