<svg xmlns="http://www.w3.org/2000/svg" viewBox="0 0 1280 640" role="img" aria-labelledby="title desc">
  <title id="title">emBEADings social preview</title>
  <desc id="desc">A light editorial card showing separate epic molecules reaching toward a shared collision point.</desc>
  <rect width="1280" height="640" fill="#f8fafc"/>
  <path d="M0 0h1280v10H0z" fill="#0f172a"/>

  <g transform="translate(72 64)">
    <rect x="1" y="1" width="70" height="70" rx="18" fill="#ffffff" stroke="#cbd5e1" stroke-width="2"/>
    <g transform="translate(7 7) scale(.6)">
      <circle cx="48" cy="48" r="13" fill="#f59e0b" opacity=".08"/>
      <circle cx="48" cy="48" r="10" fill="none" stroke="#f59e0b" stroke-width="1.5" opacity=".28"/>
      <path d="M21 39 10 27M21 39 9 51M21 39 26 22M25 41C31 42 37 44 44 46" fill="none" stroke="#1d4ed8" stroke-linecap="round" stroke-linejoin="round" stroke-width="3"/>
      <g fill="#2563eb"><circle cx="21" cy="39" r="6.5"/><circle cx="10" cy="27" r="4"/><circle cx="9" cy="51" r="4"/><circle cx="26" cy="22" r="3.5"/><circle cx="44" cy="46" r="4"/></g>
      <path d="M75 57 86 69M75 57 87 45M75 57 70 74M71 55C65 54 59 52 52 50" fill="none" stroke="#047857" stroke-linecap="round" stroke-linejoin="round" stroke-width="3"/>
      <g fill="#059669"><circle cx="75" cy="57" r="6.5"/><circle cx="86" cy="69" r="4"/><circle cx="87" cy="45" r="4"/><circle cx="70" cy="74" r="3.5"/><circle cx="52" cy="50" r="4"/></g>
      <circle cx="48" cy="48" r="2.2" fill="#f59e0b"/>
    </g>
    <text x="92" y="53" fill="#0f172a" font-family="Inter, ui-sans-serif, system-ui, sans-serif" font-size="42" font-weight="760" letter-spacing="-1.5">emBEADings</text>
  </g>

  <text x="72" y="218" fill="#0f172a" font-family="Inter, ui-sans-serif, system-ui, sans-serif" font-size="50" font-weight="720" letter-spacing="-1.6">Catch related and colliding work</text>
  <text x="72" y="274" fill="#0f172a" font-family="Inter, ui-sans-serif, system-ui, sans-serif" font-size="50" font-weight="720" letter-spacing="-1.6">before parallel agents</text>
  <text x="72" y="330" fill="#0f172a" font-family="Inter, ui-sans-serif, system-ui, sans-serif" font-size="50" font-weight="720" letter-spacing="-1.6">step on each other.</text>
  <text x="72" y="387" fill="#475569" font-family="Inter, ui-sans-serif, system-ui, sans-serif" font-size="24">Local, read-only coordination review for Beads + Linear.</text>

  <g transform="translate(72 434)" font-family="ui-monospace, SFMono-Regular, Menlo, Consolas, monospace" font-size="17" font-weight="650" letter-spacing=".7">
    <text x="0" y="24" fill="#1d4ed8">LOCAL-FIRST</text>
    <circle cx="141" cy="18" r="2.5" fill="#94a3b8"/>
    <text x="160" y="24" fill="#047857">READ-ONLY</text>
    <circle cx="279" cy="18" r="2.5" fill="#94a3b8"/>
    <text x="298" y="24" fill="#b45309">DETERMINISTIC</text>
  </g>

  <line x1="72" y1="518" x2="1208" y2="518" stroke="#cbd5e1"/>
  <text x="72" y="565" fill="#475569" font-family="ui-monospace, SFMono-Regular, Menlo, Consolas, monospace" font-size="18">pipx install embeadings</text>
  <text x="1208" y="565" text-anchor="end" fill="#64748b" font-family="Inter, ui-sans-serif, system-ui, sans-serif" font-size="18">github.com/DyrtyJax/embeadings</text>

  <g transform="translate(914 110) scale(3)">
    <circle cx="48" cy="48" r="44" fill="#ffffff" stroke="#dbe4ee" stroke-width=".75"/>
    <circle cx="48" cy="48" r="18" fill="#f59e0b" opacity=".06"/>
    <circle cx="48" cy="48" r="12" fill="none" stroke="#f59e0b" stroke-width="1" opacity=".28"/>
    <path d="M21 39 10 27M21 39 9 51M21 39 26 22M25 41C31 42 37 44 44 46" fill="none" stroke="#1d4ed8" stroke-linecap="round" stroke-linejoin="round" stroke-width="3"/>
    <g fill="#2563eb"><circle cx="21" cy="39" r="6.5"/><circle cx="10" cy="27" r="4"/><circle cx="9" cy="51" r="4"/><circle cx="26" cy="22" r="3.5"/><circle cx="44" cy="46" r="4"/></g>
    <path d="M75 57 86 69M75 57 87 45M75 57 70 74M71 55C65 54 59 52 52 50" fill="none" stroke="#047857" stroke-linecap="round" stroke-linejoin="round" stroke-width="3"/>
    <g fill="#059669"><circle cx="75" cy="57" r="6.5"/><circle cx="86" cy="69" r="4"/><circle cx="87" cy="45" r="4"/><circle cx="70" cy="74" r="3.5"/><circle cx="52" cy="50" r="4"/></g>
    <circle cx="48" cy="48" r="2.2" fill="#f59e0b"/>
  </g>
</svg>
